<svg xmlns="http://www.w3.org/2000/svg" viewBox="0 0 1200 900" role="img" aria-labelledby="title desc">
  <title id="title">Zimtschnecken</title>
  <desc id="desc">Illustratives Beispielbild mit Zimtschnecken und Glasur.</desc>
  <defs>
    <linearGradient id="bg" x1="0" x2="1" y1="0" y2="1">
      <stop offset="0%" stop-color="#f4d1ad"/>
      <stop offset="100%" stop-color="#b87248"/>
    </linearGradient>
  </defs>
  <rect width="1200" height="900" fill="url(#bg)"/>
  <g transform="translate(315 235)">
    <circle cx="160" cy="150" r="110" fill="#d49a63"/>
    <circle cx="410" cy="150" r="110" fill="#d49a63"/>
    <circle cx="285" cy="345" r="120" fill="#d49a63"/>
    <path d="M118 130c32-34 86-35 118 0-31 14-51 42-59 83-5-34-24-61-59-83Z" fill="#8b542f"/>
    <path d="M368 130c32-34 86-35 118 0-31 14-51 42-59 83-5-34-24-61-59-83Z" fill="#8b542f"/>
    <path d="M222 325c37-39 100-40 137 0-35 16-58 48-66 95-6-38-28-70-71-95Z" fill="#8b542f"/>
  </g>
  <g fill="#f8f4ec" opacity=".92">
    <path d="M424 357c55 14 101 14 150-5" stroke="#f8f4ec" stroke-width="20" fill="none" stroke-linecap="round"/>
    <path d="M682 358c58 17 100 13 141-9" stroke="#f8f4ec" stroke-width="20" fill="none" stroke-linecap="round"/>
    <path d="M533 562c71 16 130 15 185-8" stroke="#f8f4ec" stroke-width="22" fill="none" stroke-linecap="round"/>
  </g>
</svg>
